# xmcd
#
# Track frame offsets:
#	150
#	15089
#	20619
#	27982
#	36514
#	49192
#	64727
#	72216
#	79160
#	88404
#	99285
#	110679
#	117531
#	126524
#	133717
#	142635
#	149648
#	155795
#	163835
#	170715
#
# Disc length: 2415 seconds
#
# Revision: 1
# Processed by: cddbd v1.5.1PL0 Copyright (c) Steve Scherf et al.
# Submitted via: audiograbber 1.83.01
#
DISCID=27096d14
DTITLE=Various Artist - Chorlandschaft Oberoesterreich
DYEAR=2005
DGENRE=Chorus
TTITLE0=Hoamat - Singgemeinschaft Maria Neustift
TTITLE1=Grüaß dih Gott - Singgemeinschaft Maria Neustift
TTITLE2=A sunniges Platzl - Singgemeinschaft Maria Neustift
TTITLE3=Mahdaruf - I schwing hin  - Singgemeinschaft Maria Neustift
TTITLE4=s'Ennstalerlied - Singgemeinschaft Maria Neustift
TTITLE5=Innviertler Landler - Singgemeinschaft Maria Neustift
TTITLE6=Schnaderhüpfl - Jugendchor Antiesenhofen
TTITLE7=Hans, bleib da - Jugendchor Antiesenhofen
TTITLE8=Iss mit mir - Jugendchor Antiesenhofen
TTITLE9=Gottes Reign im Jahr - Steinhauser Singkreis
TTITLE10=Das Bankerl - Steinhauser Singkreis
TTITLE11=Und im Buxbamerwald - Volksliederchor Ohlsdorf
TTITLE12=Summerlang - Volksliederchor Ohlsdorf
TTITLE13=Dirndl, geh her zum Zaun - Volksliederchor Ohlsdorf
TTITLE14=Aufs Tanzn bin i ganga - Volksliederchor Ohlsdorf
TTITLE15=Schwarzaugad - Volksliederchor Ohlsdorf
TTITLE16=Gott zu Ehren lasst uns hören - OÖ Kammerchor
TTITLE17=Wacht auf, wacht auf, ihr Sünder - OÖ Kammerchor
TTITLE18=Ein Rosen entsprossen - OÖ Kammerchor
TTITLE19=Mühlviertel - OÖ Kammerchor
EXTD=
EXTT0=
EXTT1=
EXTT2=
EXTT3=
EXTT4=
EXTT5=
EXTT6=
EXTT7=
EXTT8=
EXTT9=
EXTT10=
EXTT11=
EXTT12=
EXTT13=
EXTT14=
EXTT15=
EXTT16=
EXTT17=
EXTT18=
EXTT19=
PLAYORDER=
